<mxfile host="Electron" agent="Mozilla/5.0 (Windows NT 10.0; Win64; x64) AppleWebKit/537.36 (KHTML, like Gecko) draw.io/26.0.16 Chrome/132.0.6834.196 Electron/34.2.0 Safari/537.36" version="26.0.16">
  <diagram name="Page-1" id="mQslGHnj-2zkQDmir7r8">
    <mxGraphModel dx="989" dy="577" grid="1" gridSize="10" guides="1" tooltips="1" connect="1" arrows="1" fold="1" page="1" pageScale="1" pageWidth="1700" pageHeight="1100" math="0" shadow="0">
      <root>
        <mxCell id="0" />
        <mxCell id="1" parent="0" />
        <mxCell id="blcx4EMWDpK-FIBMZfJP-16" value="" style="rounded=0;whiteSpace=wrap;html=1;fillColor=none;" parent="1" vertex="1">
          <mxGeometry x="280" y="120" width="920" height="440" as="geometry" />
        </mxCell>
        <mxCell id="DrCY6xmhCjI5dFeIECTQ-1" value="User" style="shape=umlActor;verticalLabelPosition=bottom;verticalAlign=top;html=1;outlineConnect=0;" parent="1" vertex="1">
          <mxGeometry x="310" y="140" width="30" height="60" as="geometry" />
        </mxCell>
        <mxCell id="DrCY6xmhCjI5dFeIECTQ-2" value="Login" style="rounded=0;whiteSpace=wrap;html=1;" parent="1" vertex="1">
          <mxGeometry x="440" y="160" width="120" height="60" as="geometry" />
        </mxCell>
        <mxCell id="DrCY6xmhCjI5dFeIECTQ-3" value="Validation" style="rounded=0;whiteSpace=wrap;html=1;" parent="1" vertex="1">
          <mxGeometry x="640" y="160" width="120" height="60" as="geometry" />
        </mxCell>
        <mxCell id="DrCY6xmhCjI5dFeIECTQ-4" value="Database" style="rounded=0;whiteSpace=wrap;html=1;" parent="1" vertex="1">
          <mxGeometry x="840" y="160" width="120" height="60" as="geometry" />
        </mxCell>
        <mxCell id="DrCY6xmhCjI5dFeIECTQ-11" value="" style="endArrow=none;dashed=1;html=1;rounded=0;entryX=0.5;entryY=1;entryDx=0;entryDy=0;" parent="1" target="DrCY6xmhCjI5dFeIECTQ-2" edge="1">
          <mxGeometry width="50" height="50" relative="1" as="geometry">
            <mxPoint x="500" y="520" as="sourcePoint" />
            <mxPoint x="450" y="280" as="targetPoint" />
          </mxGeometry>
        </mxCell>
        <mxCell id="DrCY6xmhCjI5dFeIECTQ-12" value="" style="endArrow=none;dashed=1;html=1;rounded=0;entryX=0.5;entryY=1;entryDx=0;entryDy=0;" parent="1" target="DrCY6xmhCjI5dFeIECTQ-3" edge="1">
          <mxGeometry width="50" height="50" relative="1" as="geometry">
            <mxPoint x="700" y="520" as="sourcePoint" />
            <mxPoint x="510" y="230" as="targetPoint" />
          </mxGeometry>
        </mxCell>
        <mxCell id="DrCY6xmhCjI5dFeIECTQ-14" value="" style="endArrow=none;dashed=1;html=1;rounded=0;entryX=0.5;entryY=1;entryDx=0;entryDy=0;" parent="1" source="DrCY6xmhCjI5dFeIECTQ-15" target="DrCY6xmhCjI5dFeIECTQ-4" edge="1">
          <mxGeometry width="50" height="50" relative="1" as="geometry">
            <mxPoint x="899.73" y="550" as="sourcePoint" />
            <mxPoint x="899.73" y="260" as="targetPoint" />
          </mxGeometry>
        </mxCell>
        <mxCell id="DrCY6xmhCjI5dFeIECTQ-17" value="" style="endArrow=classic;html=1;rounded=0;fontSize=10;" parent="1" target="DrCY6xmhCjI5dFeIECTQ-7" edge="1">
          <mxGeometry width="50" height="50" relative="1" as="geometry">
            <mxPoint x="330" y="280" as="sourcePoint" />
            <mxPoint x="485" y="280" as="targetPoint" />
          </mxGeometry>
        </mxCell>
        <mxCell id="DrCY6xmhCjI5dFeIECTQ-18" value="" style="endArrow=classic;html=1;rounded=0;fontSize=10;" parent="1" edge="1">
          <mxGeometry width="50" height="50" relative="1" as="geometry">
            <mxPoint x="505" y="299.77" as="sourcePoint" />
            <mxPoint x="695" y="299.77" as="targetPoint" />
          </mxGeometry>
        </mxCell>
        <mxCell id="DrCY6xmhCjI5dFeIECTQ-19" value="" style="endArrow=classic;html=1;rounded=0;fontSize=10;" parent="1" target="DrCY6xmhCjI5dFeIECTQ-15" edge="1">
          <mxGeometry width="50" height="50" relative="1" as="geometry">
            <mxPoint x="705" y="320" as="sourcePoint" />
            <mxPoint x="890" y="320" as="targetPoint" />
          </mxGeometry>
        </mxCell>
        <mxCell id="DrCY6xmhCjI5dFeIECTQ-21" value="Mengisi Formulir Username Atau Email Dan Password" style="text;html=1;align=center;verticalAlign=middle;whiteSpace=wrap;rounded=0;fontSize=10;" parent="1" vertex="1">
          <mxGeometry x="340" y="250" width="150" height="30" as="geometry" />
        </mxCell>
        <mxCell id="DrCY6xmhCjI5dFeIECTQ-22" value="Validasi (username/email; password;)" style="text;html=1;align=center;verticalAlign=middle;whiteSpace=wrap;rounded=0;fontSize=10;" parent="1" vertex="1">
          <mxGeometry x="510" y="277" width="180" height="30" as="geometry" />
        </mxCell>
        <mxCell id="DrCY6xmhCjI5dFeIECTQ-23" value="username/email: Ditemukan&lt;div&gt;password: Cocok&lt;/div&gt;" style="text;html=1;align=center;verticalAlign=middle;whiteSpace=wrap;rounded=0;fontSize=10;" parent="1" vertex="1">
          <mxGeometry x="710" y="290" width="180" height="30" as="geometry" />
        </mxCell>
        <mxCell id="DrCY6xmhCjI5dFeIECTQ-24" value="" style="endArrow=classic;html=1;rounded=0;fontSize=10;" parent="1" target="blcx4EMWDpK-FIBMZfJP-5" edge="1">
          <mxGeometry width="50" height="50" relative="1" as="geometry">
            <mxPoint x="905" y="340" as="sourcePoint" />
            <mxPoint x="1085" y="340" as="targetPoint" />
          </mxGeometry>
        </mxCell>
        <mxCell id="DrCY6xmhCjI5dFeIECTQ-25" value="Return User Data" style="text;html=1;align=center;verticalAlign=middle;whiteSpace=wrap;rounded=0;fontSize=10;" parent="1" vertex="1">
          <mxGeometry x="910" y="317" width="180" height="30" as="geometry" />
        </mxCell>
        <mxCell id="DrCY6xmhCjI5dFeIECTQ-26" value="" style="endArrow=classic;html=1;rounded=0;dashed=1;fontSize=10;" parent="1" target="DrCY6xmhCjI5dFeIECTQ-7" edge="1">
          <mxGeometry width="50" height="50" relative="1" as="geometry">
            <mxPoint x="695" y="360" as="sourcePoint" />
            <mxPoint x="515" y="360" as="targetPoint" />
          </mxGeometry>
        </mxCell>
        <mxCell id="DrCY6xmhCjI5dFeIECTQ-30" value="" style="endArrow=classic;html=1;rounded=0;entryX=1;entryY=0.5;entryDx=0;entryDy=0;edgeStyle=orthogonalEdgeStyle;fontSize=10;" parent="1" target="blcx4EMWDpK-FIBMZfJP-8" edge="1">
          <mxGeometry width="50" height="50" relative="1" as="geometry">
            <mxPoint x="1105" y="360" as="sourcePoint" />
            <mxPoint x="1160" y="370" as="targetPoint" />
            <Array as="points">
              <mxPoint x="1130" y="360" />
              <mxPoint x="1130" y="400" />
            </Array>
          </mxGeometry>
        </mxCell>
        <mxCell id="DrCY6xmhCjI5dFeIECTQ-31" value="Menyimpan Data Di Session" style="text;html=1;align=left;verticalAlign=middle;whiteSpace=wrap;rounded=0;fontSize=10;" parent="1" vertex="1">
          <mxGeometry x="1130" y="360" width="70" height="30" as="geometry" />
        </mxCell>
        <mxCell id="DrCY6xmhCjI5dFeIECTQ-32" value="" style="endArrow=classic;html=1;rounded=0;dashed=1;fontSize=10;" parent="1" edge="1">
          <mxGeometry width="50" height="50" relative="1" as="geometry">
            <mxPoint x="495.5" y="439.9999999999999" as="sourcePoint" />
            <mxPoint x="330.5" y="439.9999999999999" as="targetPoint" />
          </mxGeometry>
        </mxCell>
        <mxCell id="DrCY6xmhCjI5dFeIECTQ-7" value="" style="html=1;points=[[0,0,0,0,5],[0,1,0,0,-5],[1,0,0,0,5],[1,1,0,0,-5]];perimeter=orthogonalPerimeter;outlineConnect=0;targetShapes=umlLifeline;portConstraint=eastwest;newEdgeStyle={&quot;curved&quot;:0,&quot;rounded&quot;:0};fontSize=10;" parent="1" vertex="1">
          <mxGeometry x="495" y="240" width="10" height="240" as="geometry" />
        </mxCell>
        <mxCell id="2G28basbIs-I3qBXTgBx-2" value="" style="endArrow=none;dashed=1;html=1;rounded=0;entryX=0.5;entryY=1;entryDx=0;entryDy=0;" parent="1" edge="1">
          <mxGeometry width="50" height="50" relative="1" as="geometry">
            <mxPoint x="325" y="520" as="sourcePoint" />
            <mxPoint x="324.66999999999996" y="226" as="targetPoint" />
          </mxGeometry>
        </mxCell>
        <mxCell id="2G28basbIs-I3qBXTgBx-1" value="" style="html=1;points=[[0,0,0,0,5],[0,1,0,0,-5],[1,0,0,0,5],[1,1,0,0,-5]];perimeter=orthogonalPerimeter;outlineConnect=0;targetShapes=umlLifeline;portConstraint=eastwest;newEdgeStyle={&quot;curved&quot;:0,&quot;rounded&quot;:0};" parent="1" vertex="1">
          <mxGeometry x="320" y="240" width="10" height="240" as="geometry" />
        </mxCell>
        <mxCell id="blcx4EMWDpK-FIBMZfJP-1" value="" style="endArrow=none;dashed=1;html=1;rounded=0;entryX=0.5;entryY=1;entryDx=0;entryDy=0;fontSize=10;" parent="1" target="DrCY6xmhCjI5dFeIECTQ-15" edge="1">
          <mxGeometry width="50" height="50" relative="1" as="geometry">
            <mxPoint x="900" y="520" as="sourcePoint" />
            <mxPoint x="900" y="220" as="targetPoint" />
          </mxGeometry>
        </mxCell>
        <mxCell id="DrCY6xmhCjI5dFeIECTQ-15" value="" style="html=1;points=[[0,0,0,0,5],[0,1,0,0,-5],[1,0,0,0,5],[1,1,0,0,-5]];perimeter=orthogonalPerimeter;outlineConnect=0;targetShapes=umlLifeline;portConstraint=eastwest;newEdgeStyle={&quot;curved&quot;:0,&quot;rounded&quot;:0};fontSize=10;" parent="1" vertex="1">
          <mxGeometry x="895" y="260" width="10" height="200" as="geometry" />
        </mxCell>
        <mxCell id="blcx4EMWDpK-FIBMZfJP-2" value="Session" style="rounded=0;whiteSpace=wrap;html=1;" parent="1" vertex="1">
          <mxGeometry x="1040" y="160" width="120" height="60" as="geometry" />
        </mxCell>
        <mxCell id="blcx4EMWDpK-FIBMZfJP-3" value="" style="endArrow=none;dashed=1;html=1;rounded=0;entryX=0.5;entryY=1;entryDx=0;entryDy=0;" parent="1" source="blcx4EMWDpK-FIBMZfJP-5" target="blcx4EMWDpK-FIBMZfJP-2" edge="1">
          <mxGeometry width="50" height="50" relative="1" as="geometry">
            <mxPoint x="1099.73" y="550" as="sourcePoint" />
            <mxPoint x="1099.73" y="260" as="targetPoint" />
          </mxGeometry>
        </mxCell>
        <mxCell id="blcx4EMWDpK-FIBMZfJP-4" value="" style="endArrow=none;dashed=1;html=1;rounded=0;entryX=0.5;entryY=1;entryDx=0;entryDy=0;fontSize=10;" parent="1" target="blcx4EMWDpK-FIBMZfJP-5" edge="1">
          <mxGeometry width="50" height="50" relative="1" as="geometry">
            <mxPoint x="1100" y="520" as="sourcePoint" />
            <mxPoint x="1100" y="220" as="targetPoint" />
          </mxGeometry>
        </mxCell>
        <mxCell id="blcx4EMWDpK-FIBMZfJP-5" value="" style="html=1;points=[[0,0,0,0,5],[0,1,0,0,-5],[1,0,0,0,5],[1,1,0,0,-5]];perimeter=orthogonalPerimeter;outlineConnect=0;targetShapes=umlLifeline;portConstraint=eastwest;newEdgeStyle={&quot;curved&quot;:0,&quot;rounded&quot;:0};fontSize=10;" parent="1" vertex="1">
          <mxGeometry x="1095" y="280" width="10" height="160" as="geometry" />
        </mxCell>
        <mxCell id="blcx4EMWDpK-FIBMZfJP-8" value="" style="rounded=0;whiteSpace=wrap;html=1;fontSize=10;" parent="1" vertex="1">
          <mxGeometry x="1100" y="370" width="10" height="60" as="geometry" />
        </mxCell>
        <mxCell id="blcx4EMWDpK-FIBMZfJP-10" value="username/email: Tidak Ditemukan&lt;div&gt;password: Tidak Cocok&lt;/div&gt;" style="text;html=1;align=center;verticalAlign=middle;whiteSpace=wrap;rounded=0;fontSize=10;" parent="1" vertex="1">
          <mxGeometry x="510" y="330" width="180" height="30" as="geometry" />
        </mxCell>
        <mxCell id="DrCY6xmhCjI5dFeIECTQ-13" value="" style="html=1;points=[[0,0,0,0,5],[0,1,0,0,-5],[1,0,0,0,5],[1,1,0,0,-5]];perimeter=orthogonalPerimeter;outlineConnect=0;targetShapes=umlLifeline;portConstraint=eastwest;newEdgeStyle={&quot;curved&quot;:0,&quot;rounded&quot;:0};verticalAlign=top;fontSize=10;" parent="1" vertex="1">
          <mxGeometry x="695" y="240" width="10" height="240" as="geometry" />
        </mxCell>
        <mxCell id="blcx4EMWDpK-FIBMZfJP-11" value="Dialihkan Ke Halaman &quot;Home&quot;" style="text;html=1;align=center;verticalAlign=middle;whiteSpace=wrap;rounded=0;fontSize=10;" parent="1" vertex="1">
          <mxGeometry x="340.5" y="417" width="150" height="30" as="geometry" />
        </mxCell>
        <mxCell id="blcx4EMWDpK-FIBMZfJP-12" value="" style="endArrow=classic;html=1;rounded=0;dashed=1;fontSize=10;" parent="1" source="DrCY6xmhCjI5dFeIECTQ-7" edge="1">
          <mxGeometry width="50" height="50" relative="1" as="geometry">
            <mxPoint x="500" y="380" as="sourcePoint" />
            <mxPoint x="330" y="380" as="targetPoint" />
          </mxGeometry>
        </mxCell>
        <mxCell id="blcx4EMWDpK-FIBMZfJP-13" value="Menampilkan Pesan Kesalahan Sesuai Konteks" style="text;html=1;align=center;verticalAlign=middle;whiteSpace=wrap;rounded=0;fontSize=10;" parent="1" vertex="1">
          <mxGeometry x="340" y="350" width="150" height="30" as="geometry" />
        </mxCell>
        <mxCell id="blcx4EMWDpK-FIBMZfJP-14" value="" style="endArrow=classic;html=1;rounded=0;dashed=1;fontSize=10;" parent="1" edge="1">
          <mxGeometry width="50" height="50" relative="1" as="geometry">
            <mxPoint x="1095" y="419.79999999999995" as="sourcePoint" />
            <mxPoint x="505" y="419.8" as="targetPoint" />
          </mxGeometry>
        </mxCell>
        <mxCell id="blcx4EMWDpK-FIBMZfJP-15" value="Login Berhasil" style="text;html=1;align=center;verticalAlign=middle;whiteSpace=wrap;rounded=0;fontSize=10;" parent="1" vertex="1">
          <mxGeometry x="510" y="397" width="180" height="30" as="geometry" />
        </mxCell>
      </root>
    </mxGraphModel>
  </diagram>
</mxfile>
